#!OML:ASF X:\für Bonn\!DataBase\2005_08_10_Bjorn_Final\c3d\bjorn.ASF
:FULLY-SPECIFIED
:DEGREES
564
root -0.032012 1.612 11.9689 -2075.6 -8.18088 187.529
lowerback 5.03141 0.911681 -8.25596
upperback 5.2562 0.534695 -4.85558
thorax 2.59564 -0.148657 -0.444679
lowerneck -15.5411 -4.11299 0.346477
upperneck 5.75455 -6.1098 3.59274
head 4.33024 -2.87032 0.553641
rclavicle 1.59028e-014 1.19271e-015
rhumerus -13.0461 40.7104 -55.0646
rradius 123.742
rwrist -6.92846
rhand -32.047 20.3394
rfingers 7.12502
rthumb -5.29413 -9.57451
lclavicle 1.59028e-014 1.19271e-015
lhumerus -3.04069 -64.0957 42.8303
lradius 119.35
lwrist -1.31278
lhand -36.225 -17.835
lfingers 7.12502
lthumb -9.32687 731.939
rfemur -363.706 -14.2189 367.77
rtibia 24.4474
rfoot 10.9622 7.36875
rtoes -8.31898
lfemur -23.3823 8.25913 -14.1156
ltibia 64.5204
lfoot 25.0677 6.09703
ltoes -10.9206
565
root -0.0215654 1.61373 11.9657 -2075.54 -8.21507 187.412
lowerback 4.93542 0.934984 -8.16467
upperback 5.17635 0.57647 -4.90862
thorax 2.56395 -0.120149 -0.549838
lowerneck -16.0076 -4.2058 0.468575
upperneck 5.99262 -6.30735 3.76188
head 4.48386 -2.94992 0.55653
rclavicle -3.18055e-014 5.47652e-014
rhumerus -15.131 41.1335 -56.7422
rradius 124.557
rwrist -6.66974
rhand -31.7164 20.3957
rfingers 7.12502
rthumb -4.97485 -9.52589
lclavicle -3.18055e-014 5.47652e-014
lhumerus -5.69005 -63.9834 45.1793
lradius 119.595
lwrist -0.281468
lhand -35.2299 -18.015
lfingers 7.12502
lthumb -8.36663 731.799
rfemur -363.69 -14.1266 367.741
rtibia 24.4558
rfoot 10.9718 7.30715
rtoes -8.25135
lfemur -23.3848 8.23303 -14.1362
ltibia 64.4605
lfoot 25.1628 6.15887
ltoes -10.8582
566
root -0.0121214 1.61522 11.9622 -2075.49 -8.24805 187.305
lowerback 4.84799 0.955011 -8.08292
upperback 5.10472 0.614203 -4.93441
thorax 2.53631 -0.0941923 -0.621355
lowerneck -16.5077 -4.31838 0.470681
upperneck 6.27034 -6.51475 3.97728
head 4.66118 -3.03126 0.58973
rclavicle -6.83819e-014 8.65707e-014
rhumerus -17.1859 41.5842 -58.4556
rradius 125.257
rwrist -6.41542
rhand -31.3586 20.3129
rfingers 7.12502
rthumb -4.62939 -9.61653
lclavicle -6.83819e-014 8.65707e-014
lhumerus -8.37781 -63.8303 47.6396
lradius 119.851
lwrist 1.21523
lhand -34.1292 -18.4608
lfingers 7.12502
lthumb -7.3043 731.393
rfemur -363.667 -14.1271 367.696
rtibia 24.4653
rfoot 11.0133 7.33943
rtoes -8.16868
lfemur -23.3784 8.17476 -14.1622
ltibia 64.4036
lfoot 25.2474 6.2516
ltoes -10.8169
567
root -0.00309098 1.61691 11.958 -2075.44 -8.28159 187.204
lowerback 4.76214 0.98276 -7.99502
upperback 5.03807 0.660704 -4.97465
thorax 2.51295 -0.0646488 -0.711628
lowerneck -16.9836 -4.43325 0.503764
upperneck 6.54394 -6.73537 4.19471
head 4.83359 -3.11795 0.617291
rclavicle 9.54166e-015 -5.15846e-014
rhumerus -19.3317 42.0112 -60.3725
rradius 125.831
rwrist -6.14611
rhand -31.0035 20.0392
rfingers 7.12502
rthumb -4.28654 -9.89745
lclavicle 9.54166e-015 -5.15846e-014
lhumerus -10.9975 -63.6915 50.0651
lradius 120.08
lwrist 3.02008
lhand -32.8627 -18.9495
lfingers 7.12502
lthumb -6.08163 730.943
rfemur -363.638 -14.0439 367.663
rtibia 24.4714
rfoot 11.028 7.28502
rtoes -7.98006
lfemur -23.3765 8.12376 -14.1905
ltibia 64.3486
lfoot 25.3295 6.35246
ltoes -10.7129
568
root 0.00649472 1.61843 11.9544 -2075.39 -8.30986 187.103
lowerback 4.67751 1.00487 -7.92641
upperback 4.96362 0.700416 -4.98929
thorax 2.48095 -0.038041 -0.764287
lowerneck -17.3938 -4.56375 0.471607
upperneck 6.7882 -6.96106 4.41564
head 4.98952 -3.20847 0.65678
rclavicle 9.54166e-015 -2.19657e-014
rhumerus -21.573 42.4927 -62.4016
rradius 126.32
rwrist -5.98813
rhand -30.6768 19.7224
rfingers 7.12502
rthumb -3.97108 -10.2204
lclavicle 9.54166e-015 -2.19657e-014
lhumerus -13.6662 -63.5057 52.6191
lradius 120.281
lwrist 5.13443
lhand -31.3199 -19.3833
lfingers 7.12502
lthumb -4.59203 730.547
rfemur -363.621 -13.9876 367.643
rtibia 24.4826
rfoot 11.0501 7.27073
rtoes -7.81869
lfemur -23.3861 8.06104 -14.213
ltibia 64.2984
lfoot 25.427 6.38672
ltoes -10.8376
569
root 0.0151408 1.61971 11.9504 -2075.32 -8.34098 187.018
lowerback 4.56737 1.02931 -7.83524
upperback 4.90514 0.746277 -5.02427
thorax 2.48028 -0.00958173 -0.850744
lowerneck -17.7387 -4.6996 0.434143
upperneck 6.93956 -7.19833 4.68517
head 5.10929 -3.3053 0.71296
rclavicle -1.27222e-014 3.1408e-014
rhumerus -23.8839 42.9379 -64.6199
rradius 126.67
rwrist -5.89432
rhand -30.3929 19.4162
rfingers 7.12502
rthumb -3.69691 -10.5315
lclavicle -1.27222e-014 3.1408e-014
lhumerus -16.209 -63.2854 55.0757
lradius 120.498
lwrist 7.45944
lhand -29.5693 -19.6681
lfingers 7.12502
lthumb -2.90156 730.292
rfemur -363.616 -13.964 367.616
rtibia 24.4861
rfoot 11.1029 7.27369
rtoes -7.58708
lfemur -23.4226 7.97697 -14.2489
ltibia 64.2549
lfoot 25.5023 6.50545
ltoes -10.7658
570
root 0.0236867 1.62183 11.9468 -2075.25 -8.37365 186.916
lowerback 4.46318 1.05324 -7.76664
upperback 4.83793 0.790321 -5.04401
thorax 2.46712 0.0180752 -0.908716
lowerneck -18.0256 -4.83726 0.374356
upperneck 7.07621 -7.43031 4.94715
head 5.21652 -3.40072 0.77172
rclavicle 1.27222e-014 -4.68138e-014
rhumerus -26.3048 43.3909 -67.0145
rradius 126.929
rwrist -5.83539
rhand -30.2178 19.1217
rfingers 7.12502
rthumb -3.52782 -10.8289
lclavicle 1.27222e-014 -4.68138e-014
lhumerus -18.7813 -62.9905 57.6567
lradius 120.69
lwrist 9.92662
lhand -27.6517 -19.8345
lfingers 7.12502
lthumb -1.04954 730.143
rfemur -363.609 -13.9471 367.591
rtibia 24.488
rfoot 11.141 7.3316
rtoes -7.50631
lfemur -23.4472 7.89139 -14.288
ltibia 64.211
lfoot 25.591 6.56034
ltoes -10.7322
